<svg xmlns="http://www.w3.org/2000/svg" viewBox="0 0 48 48" width="48px" height="48px">
	<path
		d="M 24 4 C 12.972066 4 4 12.972074 4 24 C 4 35.027926 12.972066 44 24 44 C 35.027934 44 44 35.027926 44 24 C 44 12.972074 35.027934 4 24 4 z M 16 15 L 32 15 C 33.509347 15 34.746455 16.117429 34.957031 17.568359 L 24 22.740234 L 13.042969 17.568359 C 13.253545 16.117429 14.490653 15 16 15 z M 13 20.867188 L 23.359375 25.755859 A 1.50015 1.50015 0 0 0 24.640625 25.755859 L 35 20.867188 L 35 30 C 35 31.657 33.657 33 32 33 L 16 33 C 14.343 33 13 31.657 13 30 L 13 20.867188 z" />
</svg>